<mxfile host="app.diagrams.net" modified="2022-08-09T04:51:52.002Z" agent="5.0 (Windows NT 10.0; Win64; x64) AppleWebKit/537.36 (KHTML, like Gecko) Chrome/104.0.0.0 Safari/537.36" etag="ntEIaiQMxsKyzvGv2a7S" version="20.2.3" type="github">
  <diagram id="tqWKiF_mVkQg2hHP5tWX" name="Page-1">
    <mxGraphModel dx="1483" dy="2970" grid="1" gridSize="10" guides="1" tooltips="1" connect="1" arrows="1" fold="1" page="1" pageScale="1" pageWidth="850" pageHeight="1100" math="0" shadow="0">
      <root>
        <mxCell id="0" />
        <mxCell id="1" parent="0" />
        <mxCell id="WT8WQhDRmalhLqfulZDc-3" value="" style="edgeStyle=orthogonalEdgeStyle;rounded=0;orthogonalLoop=1;jettySize=auto;html=1;" parent="1" source="WT8WQhDRmalhLqfulZDc-1" target="WT8WQhDRmalhLqfulZDc-2" edge="1">
          <mxGeometry relative="1" as="geometry" />
        </mxCell>
        <mxCell id="WT8WQhDRmalhLqfulZDc-1" value="" style="rounded=0;whiteSpace=wrap;html=1;fillColor=#D9E6FF;shadow=1;" parent="1" vertex="1">
          <mxGeometry x="70" y="-1640" width="900" height="470" as="geometry" />
        </mxCell>
        <mxCell id="WT8WQhDRmalhLqfulZDc-2" value="height 470&lt;br&gt;width 900" style="rounded=0;whiteSpace=wrap;html=1;" parent="1" vertex="1">
          <mxGeometry x="1130" y="-1465" width="90" height="80" as="geometry" />
        </mxCell>
        <mxCell id="WT8WQhDRmalhLqfulZDc-5" value="&lt;b&gt;Login&lt;/b&gt;" style="rounded=1;whiteSpace=wrap;html=1;" parent="1" vertex="1">
          <mxGeometry x="90" y="-1270" width="120" height="30" as="geometry" />
        </mxCell>
        <mxCell id="WT8WQhDRmalhLqfulZDc-7" value="" style="shape=delay;whiteSpace=wrap;html=1;rotation=-180;" parent="1" vertex="1">
          <mxGeometry x="300" y="-1630" width="570" height="410" as="geometry" />
        </mxCell>
        <mxCell id="WT8WQhDRmalhLqfulZDc-8" value="&lt;font style=&quot;font-size: 24px;&quot;&gt;Wel Come&lt;br&gt;&lt;/font&gt;&lt;br&gt;You are 30 Seconds away from earning your own money" style="text;html=1;strokeColor=none;fillColor=none;align=center;verticalAlign=middle;whiteSpace=wrap;rounded=0;" parent="1" vertex="1">
          <mxGeometry x="80" y="-1550" width="150" height="150" as="geometry" />
        </mxCell>
        <mxCell id="WT8WQhDRmalhLqfulZDc-9" value="&lt;font style=&quot;font-size: 14px;&quot;&gt;First Name&lt;/font&gt;" style="rounded=0;whiteSpace=wrap;html=1;shadow=1;fontSize=24;fillColor=#D9E6FF;align=left;" parent="1" vertex="1">
          <mxGeometry x="390" y="-1560" width="170" height="30" as="geometry" />
        </mxCell>
        <mxCell id="WT8WQhDRmalhLqfulZDc-10" value="&lt;font style=&quot;font-size: 14px;&quot;&gt;Last Name&lt;/font&gt;" style="rounded=0;whiteSpace=wrap;html=1;shadow=1;fontSize=24;fillColor=#D9E6FF;align=left;" parent="1" vertex="1">
          <mxGeometry x="390" y="-1500" width="170" height="30" as="geometry" />
        </mxCell>
        <mxCell id="WT8WQhDRmalhLqfulZDc-11" value="&lt;font style=&quot;font-size: 14px;&quot;&gt;Your Email&lt;/font&gt;" style="rounded=0;whiteSpace=wrap;html=1;shadow=1;fontSize=24;fillColor=#D9E6FF;align=left;" parent="1" vertex="1">
          <mxGeometry x="630" y="-1560" width="170" height="30" as="geometry" />
        </mxCell>
        <mxCell id="WT8WQhDRmalhLqfulZDc-12" value="&lt;font style=&quot;font-size: 14px;&quot;&gt;You phone number&lt;/font&gt;" style="rounded=0;whiteSpace=wrap;html=1;shadow=1;fontSize=24;fillColor=#D9E6FF;align=left;" parent="1" vertex="1">
          <mxGeometry x="630" y="-1500" width="170" height="30" as="geometry" />
        </mxCell>
        <mxCell id="WT8WQhDRmalhLqfulZDc-13" value="&lt;font style=&quot;font-size: 14px;&quot;&gt;Password&lt;/font&gt;" style="rounded=0;whiteSpace=wrap;html=1;shadow=1;fontSize=24;fillColor=#D9E6FF;align=left;" parent="1" vertex="1">
          <mxGeometry x="390" y="-1440" width="170" height="30" as="geometry" />
        </mxCell>
        <mxCell id="WT8WQhDRmalhLqfulZDc-14" value="&lt;font style=&quot;font-size: 14px;&quot;&gt;Please select you security question&lt;/font&gt;" style="rounded=0;whiteSpace=wrap;html=1;shadow=1;fontSize=24;fillColor=#D9E6FF;align=left;" parent="1" vertex="1">
          <mxGeometry x="630" y="-1440" width="230" height="30" as="geometry" />
        </mxCell>
        <mxCell id="WT8WQhDRmalhLqfulZDc-15" value="&lt;font style=&quot;font-size: 14px;&quot;&gt;Confirm Password&lt;/font&gt;" style="rounded=0;whiteSpace=wrap;html=1;shadow=1;fontSize=24;fillColor=#D9E6FF;align=left;" parent="1" vertex="1">
          <mxGeometry x="390" y="-1385" width="170" height="30" as="geometry" />
        </mxCell>
        <mxCell id="WT8WQhDRmalhLqfulZDc-16" value="&lt;font style=&quot;font-size: 14px;&quot;&gt;Enter Your Answer&lt;/font&gt;" style="rounded=0;whiteSpace=wrap;html=1;shadow=1;fontSize=24;fillColor=#D9E6FF;align=left;" parent="1" vertex="1">
          <mxGeometry x="630" y="-1385" width="170" height="30" as="geometry" />
        </mxCell>
        <mxCell id="WT8WQhDRmalhLqfulZDc-17" value="&lt;font style=&quot;font-size: 18px;&quot;&gt;&lt;b&gt;Male&lt;/b&gt;&lt;/font&gt;" style="text;html=1;strokeColor=none;fillColor=none;align=center;verticalAlign=middle;whiteSpace=wrap;rounded=0;shadow=1;fontSize=24;" parent="1" vertex="1">
          <mxGeometry x="410" y="-1330" width="60" height="30" as="geometry" />
        </mxCell>
        <mxCell id="WT8WQhDRmalhLqfulZDc-18" value="&lt;b&gt;Female&lt;/b&gt;" style="text;html=1;strokeColor=none;fillColor=none;align=center;verticalAlign=middle;whiteSpace=wrap;rounded=0;shadow=1;fontSize=18;" parent="1" vertex="1">
          <mxGeometry x="490" y="-1330" width="60" height="30" as="geometry" />
        </mxCell>
        <mxCell id="WT8WQhDRmalhLqfulZDc-19" value="&lt;b&gt;&lt;font style=&quot;font-size: 14px;&quot;&gt;Register&lt;/font&gt;&lt;/b&gt;" style="rounded=1;whiteSpace=wrap;html=1;shadow=1;fontSize=18;fillColor=#D9E6FF;" parent="1" vertex="1">
          <mxGeometry x="680" y="-1290" width="120" height="30" as="geometry" />
        </mxCell>
        <mxCell id="WT8WQhDRmalhLqfulZDc-20" value="" style="image;html=1;image=img/lib/clip_art/finance/Stock_Up_128x128.png;shadow=1;fontSize=18;fillColor=#D9E6FF;" parent="1" vertex="1">
          <mxGeometry x="110" y="-1590" width="117" height="80" as="geometry" />
        </mxCell>
        <mxCell id="WT8WQhDRmalhLqfulZDc-22" value="&lt;font style=&quot;font-size: 12px;&quot;&gt;&lt;b style=&quot;&quot;&gt;Employee&lt;/b&gt;&lt;/font&gt;" style="rounded=1;whiteSpace=wrap;html=1;shadow=1;fontSize=18;fillColor=#D9E6FF;align=center;" parent="1" vertex="1">
          <mxGeometry x="630" y="-1610" width="80" height="20" as="geometry" />
        </mxCell>
        <mxCell id="WT8WQhDRmalhLqfulZDc-24" value="&lt;font style=&quot;font-size: 12px;&quot;&gt;&lt;b style=&quot;&quot;&gt;Guest&lt;/b&gt;&lt;/font&gt;" style="rounded=1;whiteSpace=wrap;html=1;shadow=1;fontSize=18;fillColor=#D9E6FF;align=center;" parent="1" vertex="1">
          <mxGeometry x="730" y="-1610" width="80" height="20" as="geometry" />
        </mxCell>
        <mxCell id="DrbF5xAi_hMmKWuLy3JI-3" value="" style="rounded=0;whiteSpace=wrap;html=1;shadow=1;fontSize=12;fillColor=#D9E6FF;" vertex="1" parent="1">
          <mxGeometry x="150" y="-2190" width="960" height="460" as="geometry" />
        </mxCell>
        <mxCell id="DrbF5xAi_hMmKWuLy3JI-7" value="Registration Form" style="text;html=1;strokeColor=none;fillColor=none;align=center;verticalAlign=middle;whiteSpace=wrap;rounded=0;shadow=1;fontSize=36;" vertex="1" parent="1">
          <mxGeometry x="450" y="-2170" width="370" height="50" as="geometry" />
        </mxCell>
        <mxCell id="DrbF5xAi_hMmKWuLy3JI-8" value="&lt;font style=&quot;font-size: 18px;&quot;&gt;complete the form below and press the submit button&lt;/font&gt;" style="text;html=1;strokeColor=none;fillColor=none;align=center;verticalAlign=middle;whiteSpace=wrap;rounded=0;shadow=1;fontSize=36;" vertex="1" parent="1">
          <mxGeometry x="350" y="-2120" width="590" height="30" as="geometry" />
        </mxCell>
        <mxCell id="DrbF5xAi_hMmKWuLy3JI-9" style="edgeStyle=orthogonalEdgeStyle;rounded=0;orthogonalLoop=1;jettySize=auto;html=1;exitX=0.5;exitY=1;exitDx=0;exitDy=0;fontSize=18;" edge="1" parent="1" source="DrbF5xAi_hMmKWuLy3JI-8" target="DrbF5xAi_hMmKWuLy3JI-8">
          <mxGeometry relative="1" as="geometry" />
        </mxCell>
        <mxCell id="DrbF5xAi_hMmKWuLy3JI-10" value="Full Name" style="rounded=0;whiteSpace=wrap;html=1;shadow=1;fontSize=18;" vertex="1" parent="1">
          <mxGeometry x="280" y="-2060" width="170" height="30" as="geometry" />
        </mxCell>
        <mxCell id="DrbF5xAi_hMmKWuLy3JI-11" value="Father Name" style="rounded=0;whiteSpace=wrap;html=1;shadow=1;fontSize=18;" vertex="1" parent="1">
          <mxGeometry x="280" y="-2010" width="170" height="30" as="geometry" />
        </mxCell>
        <mxCell id="DrbF5xAi_hMmKWuLy3JI-12" value="Email" style="rounded=0;whiteSpace=wrap;html=1;shadow=1;fontSize=18;" vertex="1" parent="1">
          <mxGeometry x="280" y="-1950" width="170" height="30" as="geometry" />
        </mxCell>
        <mxCell id="DrbF5xAi_hMmKWuLy3JI-13" value="DOB" style="rounded=0;whiteSpace=wrap;html=1;shadow=1;fontSize=18;" vertex="1" parent="1">
          <mxGeometry x="280" y="-1900" width="170" height="30" as="geometry" />
        </mxCell>
        <mxCell id="DrbF5xAi_hMmKWuLy3JI-14" value="Male" style="rounded=0;whiteSpace=wrap;html=1;shadow=1;fontSize=18;" vertex="1" parent="1">
          <mxGeometry x="560" y="-2050" width="170" height="30" as="geometry" />
        </mxCell>
        <mxCell id="DrbF5xAi_hMmKWuLy3JI-15" value="Female" style="rounded=0;whiteSpace=wrap;html=1;shadow=1;fontSize=18;" vertex="1" parent="1">
          <mxGeometry x="560" y="-2000" width="170" height="30" as="geometry" />
        </mxCell>
        <mxCell id="DrbF5xAi_hMmKWuLy3JI-16" value="EMP ID" style="rounded=0;whiteSpace=wrap;html=1;shadow=1;fontSize=18;" vertex="1" parent="1">
          <mxGeometry x="560" y="-1950" width="170" height="30" as="geometry" />
        </mxCell>
        <mxCell id="DrbF5xAi_hMmKWuLy3JI-17" value="Mobile Number" style="rounded=0;whiteSpace=wrap;html=1;shadow=1;fontSize=18;" vertex="1" parent="1">
          <mxGeometry x="280" y="-1840" width="170" height="30" as="geometry" />
        </mxCell>
        <mxCell id="DrbF5xAi_hMmKWuLy3JI-18" value="Upload" style="rounded=0;whiteSpace=wrap;html=1;shadow=1;fontSize=18;" vertex="1" parent="1">
          <mxGeometry x="560" y="-1890" width="170" height="30" as="geometry" />
        </mxCell>
        <mxCell id="DrbF5xAi_hMmKWuLy3JI-19" value="Submit" style="rounded=0;whiteSpace=wrap;html=1;shadow=1;fontSize=18;fillColor=#0050ef;strokeColor=#001DBC;fontColor=#ffffff;" vertex="1" parent="1">
          <mxGeometry x="570" y="-1780" width="120" height="30" as="geometry" />
        </mxCell>
        <mxCell id="DrbF5xAi_hMmKWuLy3JI-20" value="What is your gender" style="text;html=1;strokeColor=none;fillColor=none;align=center;verticalAlign=middle;whiteSpace=wrap;rounded=0;shadow=1;fontSize=18;" vertex="1" parent="1">
          <mxGeometry x="510" y="-2080" width="250" height="30" as="geometry" />
        </mxCell>
      </root>
    </mxGraphModel>
  </diagram>
</mxfile>
